<svg xmlns="http://www.w3.org/2000/svg" viewBox="0 0 113.51 46.7"><defs><style>.cls-1{fill:#fada23;}.cls-1,.cls-2{fill-rule:evenodd;}.cls-2{fill:#eb3237;}</style></defs><title>Asset 1</title><g id="Layer_2" data-name="Layer 2"><g id="Layer_1-2" data-name="Layer 1"><g id="shape"><path id="Path_10" data-name="Path 10" class="cls-1" d="M53.93,24.93,43.82,33.36l1.68,3.37H59.83Z"/><path id="Path_11" data-name="Path 11" class="cls-2" d="M0,46.7,65.73,9.2l-37.92,15,11-20.94-7.58-.73Z"/><path id="Path_12" data-name="Path 12" class="cls-1" d="M21.91,36.59,65.73,11,36.24,36.59Z"/><path id="Shape_2_copy" data-name="Shape 2 copy" class="cls-1" d="M40.45,0,31.18,2.53l6.75,16L48,14.33Z"/></g><path d="M88.1,31.37H85.21a1.32,1.32,0,0,1-.79-.23,1.15,1.15,0,0,1-.44-.58L83,27.77h-6.1L76,30.56a1.32,1.32,0,0,1-.43.56,1.3,1.3,0,0,1-.78.25H71.88l6.21-16h3.8ZM77.8,25.24h4.38L80.7,20.85l-.33-1c-.13-.37-.26-.78-.38-1.22-.12.45-.24.86-.36,1.24s-.25.71-.36,1Z"/><path d="M93.11,26v5.36H89.39v-16h5.66a9.26,9.26,0,0,1,2.91.4,5.66,5.66,0,0,1,2,1.11,4.27,4.27,0,0,1,1.16,1.66,5.55,5.55,0,0,1,.37,2.06,6.19,6.19,0,0,1-.38,2.2,4.45,4.45,0,0,1-1.18,1.72,5.57,5.57,0,0,1-2,1.12,9.42,9.42,0,0,1-2.87.4Zm0-2.81h1.94a2.74,2.74,0,0,0,2.09-.69,2.78,2.78,0,0,0,.64-1.94,2.91,2.91,0,0,0-.17-1,2,2,0,0,0-.5-.77,2.11,2.11,0,0,0-.85-.5,3.63,3.63,0,0,0-1.21-.18H93.11Z"/><path d="M112.36,18.59a1.27,1.27,0,0,1-.35.4.74.74,0,0,1-.46.13A1.14,1.14,0,0,1,111,19l-.66-.35a4.08,4.08,0,0,0-.84-.36,3.23,3.23,0,0,0-1.08-.16,2.35,2.35,0,0,0-1.55.44,1.53,1.53,0,0,0-.51,1.21,1.12,1.12,0,0,0,.3.8,2.75,2.75,0,0,0,.81.55,7.3,7.3,0,0,0,1.15.42l1.31.43a11.72,11.72,0,0,1,1.31.56,4.43,4.43,0,0,1,1.15.81,3.89,3.89,0,0,1,.81,1.21,4.35,4.35,0,0,1,.31,1.71,5.54,5.54,0,0,1-.39,2.08A4.94,4.94,0,0,1,112,30a5.21,5.21,0,0,1-1.8,1.13,6.9,6.9,0,0,1-2.44.41,8,8,0,0,1-1.52-.15,9.27,9.27,0,0,1-1.5-.44,8.67,8.67,0,0,1-1.37-.66,6.54,6.54,0,0,1-1.11-.86l1.1-1.74a1,1,0,0,1,.34-.32,1,1,0,0,1,.48-.12,1.22,1.22,0,0,1,.66.21l.76.46a5.46,5.46,0,0,0,1,.46,3.65,3.65,0,0,0,1.3.21,2.54,2.54,0,0,0,1.58-.44,1.72,1.72,0,0,0,.56-1.42,1.37,1.37,0,0,0-.31-.91,2.47,2.47,0,0,0-.81-.58,6.84,6.84,0,0,0-1.14-.41l-1.31-.39a9.71,9.71,0,0,1-1.31-.53,4.14,4.14,0,0,1-1.13-.82,3.69,3.69,0,0,1-.81-1.28,5,5,0,0,1-.31-1.88,4.47,4.47,0,0,1,.36-1.76,4.37,4.37,0,0,1,1.07-1.53A5.2,5.2,0,0,1,106,15.56a6.52,6.52,0,0,1,2.34-.4,8.36,8.36,0,0,1,1.43.12,7.32,7.32,0,0,1,2.5.88,5.05,5.05,0,0,1,1,.71Z"/></g></g></svg>