<svg xmlns="http://www.w3.org/2000/svg" width="17" height="17" viewBox="0 0 17 17"><defs><style>.a{fill:#657d89;stroke:#fadb23;}</style></defs><path class="a" d="M75.757,47.562a1.313,1.313,0,0,1-1.37,1.244h-4.3a1.313,1.313,0,0,1-1.37-1.244V34.05a1.313,1.313,0,0,1,1.37-1.244h4.3a1.25,1.25,0,1,1,0,2.489H71.453V46.317h2.935A1.313,1.313,0,0,1,75.757,47.562Zm8.556-7.635-2.766-2.514a1.469,1.469,0,0,0-1.937,0,1.165,1.165,0,0,0,0,1.76l.429.389H74a1.25,1.25,0,1,0,0,2.489h6.042l-.429.389a1.165,1.165,0,0,0,0,1.76,1.469,1.469,0,0,0,1.937,0l2.766-2.514A1.167,1.167,0,0,0,84.314,39.926Z" transform="translate(-68.214 -32.306)"/></svg>