<svg xmlns="http://www.w3.org/2000/svg" width="18" height="24" viewBox="0 0 18 24"><defs><style>.a{fill:#657d89;}</style></defs><g transform="translate(-29.199 -23)"><g transform="translate(29.199 23)"><path class="a" d="M34.3,42.556h-3.46a1.658,1.658,0,0,1-1.636-1.867l.161-1.571c.1-.942.176-2.5.176-3.452V31.892a8.656,8.656,0,1,1,17.307,0v3.774c0,.951.079,2.508.176,3.452l.161,1.571a1.657,1.657,0,0,1-1.636,1.867h-3.46V43A3.9,3.9,0,1,1,34.3,43Zm1.731,0V43a2.164,2.164,0,1,0,4.327,0v-.444ZM45.307,39.3c-.1-1.006-.186-2.625-.186-3.638V31.892a6.925,6.925,0,1,0-13.845,0v3.774c0,1.012-.083,2.634-.186,3.638l-.151,1.474H45.458Z" transform="translate(-29.199 -23)"/></g></g></svg>